Genre:Action | Adventure | Crime
Language:English 
http://www.imdb.com/title/tt1345836/
Source:26K Thanks
Encoder:Tony

Format : AVI
Format/Info : Audio Video Interleave
File size : 1.10 GiB
Duration : 2h 36mn
Overall bit rate : 1 008 Kbps

Video
ID : 0
Format : MPEG-4 Visual
Format profile : Advanced Simple@L5
Format settings, BVOP : 1
Format settings, QPel : No
Format settings, GMC : No warppoints
Format settings, Matrix : Default (H.263)
Codec ID : XVID
Codec ID/Hint : XviD
Duration : 2h 36mn
Bit rate : 836 Kbps
Width : 640 pixels
Height : 256 pixels
Display aspect ratio : 2.500
Frame rate : 29.970 fps
Color space : YUV
Chroma subsampling : 4:2:0
Bit depth : 8 bits
Scan type : Progressive
Compression mode : Lossy
Bits/(Pixel*Frame) : 0.170
Stream size : 937 MiB (83%)
Writing library : XviD 1.2.1 (UTC 2008-12-04)

Audio
ID : 1
Format : AC-3
Format/Info : Audio Coding 3
Mode extension : CM (complete main)
Codec ID : 2000
Duration : 2h 36mn
Bit rate mode : Constant
Bit rate : 160 Kbps
Channel(s) : 2 channels
Channel positions : Front: L R
Sampling rate : 48.0 KHz
Bit depth : 16 bits
Compression mode : Lossy
Stream size : 179 MiB (16%)
Alignment : Split accross interleaves
Interleave, duration : 33 ms (1.00 video frame)
Interleave, preload duration : 500 ms


Plot:
Eight years on, a new terrorist leader, Bane, overwhelms Gotham's finest, and the Dark Knight resurfaces to protect a city that has branded him an enemy.
 
http://img826.imageshack.us/img826/79/vlcsnap2012072619h08m58.png 
http://img194.imageshack.us/img194/5646/vlcsnap2012072619h10m13.png 
http://img545.imageshack.us/img545/7670/vlcsnap2012072619h09m06.png 
http://img28.imageshack.us/img28/5444/vlcsnap2012072619h18m05.png